HIERARCHY
ROOT Hips
{
 OFFSET 0.000000 0.000000 0.000000
 CHANNELS 6 Xposition Yposition Zposition Yrotation Xrotation Zrotation
 JOINT Chest
 {
  OFFSET 0.000000 9.585900 0.002600
  CHANNELS 3 Yrotation Xrotation Zrotation
  JOINT Chest2
  {
   OFFSET 0.000000 9.601200 -0.005300
   CHANNELS 3 Yrotation Xrotation Zrotation
   JOINT Chest3
   {
    OFFSET 0.000000 9.561800 0.000000
    CHANNELS 3 Yrotation Xrotation Zrotation
    JOINT Chest4
    {
     OFFSET 0.000000 9.552100 0.000000
     CHANNELS 3 Yrotation Xrotation Zrotation
     JOINT Neck
     {
      OFFSET 0.000000 14.453000 0.000000
      CHANNELS 3 Yrotation Xrotation Zrotation
      JOINT Head
      {
       OFFSET 0.000000 8.936500 -0.011300
       CHANNELS 3 Yrotation Xrotation Zrotation
       End Site
       {
        OFFSET 0.000000 17.073600 -0.006000
       }
      }
     }
     JOINT RightCollar
     {
      OFFSET -2.921100 9.558500 0.000000
      CHANNELS 3 Yrotation Xrotation Zrotation
      JOINT RightShoulder
      {
       OFFSET -13.519700 0.000000 0.000000
       CHANNELS 3 Yrotation Xrotation Zrotation
       JOINT RightElbow
       {
        OFFSET 0.000000 -29.696600 0.000000
        CHANNELS 3 Yrotation Xrotation Zrotation
        JOINT RightWrist
        {
         OFFSET 0.000000 -24.004700 0.000000
         CHANNELS 3 Yrotation Xrotation Zrotation
         End Site
         {
          OFFSET 0.000000 -17.728500 0.000000
         }
        }
       }
      }
     }
     JOINT LeftCollar
     {
      OFFSET 2.921100 9.558500 0.000000
      CHANNELS 3 Yrotation Xrotation Zrotation
      JOINT LeftShoulder
      {
       OFFSET 13.519700 0.000000 0.000000
       CHANNELS 3 Yrotation Xrotation Zrotation
       JOINT LeftElbow
       {
        OFFSET 0.000000 -29.696600 0.000000
        CHANNELS 3 Yrotation Xrotation Zrotation
        JOINT LeftWrist
        {
         OFFSET 0.000000 -24.004700 0.000000
         CHANNELS 3 Yrotation Xrotation Zrotation
         End Site
         {
          OFFSET 0.000000 -17.728500 0.000000
         }
        }
       }
      }
     }
    }
   }
  }
 }
 JOINT RightHip
 {
  OFFSET -7.771700 -0.012900 -0.001300
  CHANNELS 3 Yrotation Xrotation Zrotation
  JOINT RightKnee
  {
   OFFSET 0.000000 -40.869800 0.001200
   CHANNELS 3 Yrotation Xrotation Zrotation
   JOINT RightAnkle
   {
    OFFSET 0.000000 -39.717900 0.002100
    CHANNELS 3 Yrotation Xrotation Zrotation
    JOINT RightToe
    {
     OFFSET 0.000000 -4.965400 11.033500
     CHANNELS 3 Yrotation Xrotation Zrotation
     End Site
     {
      OFFSET 0.000000 -1.423100 5.872300
     }
    }
   }
  }
 }
 JOINT LeftHip
 {
  OFFSET 7.771700 -0.012900 -0.001300
  CHANNELS 3 Yrotation Xrotation Zrotation
  JOINT LeftKnee
  {
   OFFSET 0.000000 -40.869800 0.001200
   CHANNELS 3 Yrotation Xrotation Zrotation
   JOINT LeftAnkle
   {
    OFFSET 0.000000 -39.717900 0.002100
    CHANNELS 3 Yrotation Xrotation Zrotation
    JOINT LeftToe
    {
     OFFSET 0.000000 -4.965400 11.033500
     CHANNELS 3 Yrotation Xrotation Zrotation
     End Site
     {
      OFFSET 0.000000 -1.423100 5.872300
     }
    }
   }
  }
 }
}
MOTION
Frames: 13
Frame Time: 0.008333
0.000000 85.388000 0.000000 0.000000 -5.767877 0.000000 0.000000 11.653817 0.000000 0.000000 -5.885947 0.000000 0.000000 -0.000000 0.000000 0.000000 -0.000000 0.000000 0.000000 12.528835 0.000000 0.000000 0.711642 0.000000 0.000000 -0.000000 0.000000 0.000000 0.000000 -90.000000 0.000000 -2.309062 0.000000 0.000000 2.309062 0.000000 0.000000 -0.000000 0.000000 0.000000 -0.000000 90.000000 0.000000 -2.309062 0.000000 0.000000 2.309062 0.000000 0.000000 8.520406 0.000000 0.000000 1.905762 0.000000 -0.000000 -4.658285 0.000000 0.000000 -0.000000 0.000000 0.000000 8.520406 0.000000 0.000000 1.905762 0.000000 -0.000000 -4.658285 0.000000 0.000000 -0.000000 0.000000
-32.636122 47.024558 20.071565 175.377032 -29.489737 -4.466851 -0.662976 18.859210 2.709645 -0.103573 2.225095 0.338873 -0.163886 3.670608 0.557131 -0.462100 16.367647 2.456373 -11.392010 18.017467 3.953684 -22.167736 -0.802762 10.826809 -0.708814 2.654153 -2.252307 -10.297150 -12.215996 -12.453417 -88.763179 -53.519907 126.356073 -4.233594 -1.225613 -3.605248 -0.173224 -0.854150 1.588228 -4.680290 -2.910576 14.009138 66.332734 -67.260585 -105.954835 -0.597907 14.131396 10.424958 -3.406717 -57.540278 -2.270342 -135.323108 79.300861 -126.527065 -8.715550 -15.513605 -6.870733 -0.097876 1.638478 0.032404 -5.887110 -59.011713 14.624723 -118.128847 81.560137 -121.345012 7.279885 -7.429182 4.213759 0.050083 -0.004814 -0.138320
-32.620780 47.037662 20.066107 175.204822 -29.466303 -4.391598 -0.640312 18.836948 2.639843 -0.104136 2.223812 0.334836 -0.164949 3.668702 0.550418 -0.470554 16.366206 2.426481 -11.476201 18.106085 3.856445 -22.278420 -0.645855 10.657649 -0.714953 2.653615 -2.231729 -10.340787 -12.282566 -12.438857 -87.413330 -52.800811 125.056707 -4.668672 -1.575645 -4.051701 -0.169662 -0.802242 1.590139 -4.541577 -2.903698 13.997790 66.392513 -67.237585 -105.974595 -0.626026 14.131394 10.426481 -3.308443 -57.583653 -2.154754 -135.563431 79.257627 -126.761364 -8.794728 -15.955195 -6.866553 -0.098758 1.598352 0.008810 -5.964278 -58.994133 14.778808 -118.077973 81.576492 -121.353378 7.337490 -7.441783 4.194514 0.024800 -0.016988 -0.148009
-32.598939 47.052368 20.059631 175.046003 -29.443163 -4.345206 -0.610209 18.813806 2.598132 -0.104971 2.222770 0.330247 -0.139452 3.667494 0.554154 -0.511245 16.364929 2.382178 -11.576313 18.202065 3.758616 -22.417045 -0.472618 10.490515 -0.653218 2.655243 -2.201645 -10.421204 -12.346423 -12.453065 -86.154486 -52.139433 123.809349 -5.084943 -1.928309 -4.664560 -0.173102 -0.745353 1.595185 -4.397532 -2.899722 13.977089 66.444496 -67.265727 -106.007097 -0.506382 14.090498 10.524250 -3.236179 -57.620075 -2.039869 -135.683684 79.227837 -126.870509 -8.791313 -16.333007 -6.862425 -0.127414 1.534606 -0.025699 -6.079261 -58.974466 14.951630 -118.113141 81.575453 -121.382386 7.371411 -7.475394 4.080468 0.059549 -0.015262 -0.118481
-32.571141 47.067340 20.052206 174.917472 -29.422273 -4.334788 -0.537062 18.788987 2.618021 -0.153983 2.221628 0.308266 -0.063782 3.668271 0.579132 -0.610387 16.362125 2.315609 -11.691542 18.306346 3.659578 -22.581721 -0.281623 10.323769 -0.699762 2.644338 -2.190745 -10.369369 -12.389327 -12.477907 -84.997863 -51.542577 122.620639 -5.478780 -2.282769 -5.418436 -0.181479 -0.681642 1.600217 -4.257870 -2.899962 13.945673 66.460918 -67.227642 -105.961153 -0.459629 14.063385 10.597421 -3.215520 -57.661320 -1.840509 -135.636063 79.156054 -126.820052 -8.816288 -16.663804 -6.857608 -0.095220 1.439896 -0.031824 -6.243368 -58.950460 15.155107 -118.198512 81.580525 -121.454032 7.403102 -7.517625 3.968516 0.075928 -0.011626 -0.058605
-32.547573 47.083883 20.036775 174.857533 -29.443705 -4.316869 -0.602818 18.810497 2.548488 -0.129555 2.220533 0.312359 -0.146945 3.665683 0.537046 -0.535237 16.364149 2.307855 -11.820087 18.418163 3.557113 -22.768714 -0.075193 10.153012 -0.743411 2.633110 -2.192634 -10.296787 -12.412680 -12.515779 -83.929077 -50.998961 121.485539 -5.850707 -2.634034 -6.278341 -0.188511 -0.609700 1.602258 -4.136092 -2.908584 13.898635 66.448286 -67.189979 -105.873622 -0.447456 14.054739 10.658807 -3.167443 -57.657367 -1.724585 -136.080333 79.126184 -127.279767 -8.891111 -17.005708 -6.816210 -0.081331 1.338453 -0.040086 -6.375742 -58.885661 15.261077 -118.287766 81.597455 -121.541420 7.426768 -7.550167 3.902723 0.098265 -0.009160 -0.058410
-32.527699 47.094556 20.025306 174.815203 -29.431536 -4.278223 -0.687105 18.797369 2.454301 -0.108612 2.220154 0.315556 -0.172666 3.663144 0.518570 -0.522982 16.365801 2.280471 -11.959326 18.535375 3.450027 -22.973231 0.141944 9.975883 -0.750527 2.626184 -2.200562 -10.235874 -12.421784 -12.568916 -82.923457 -50.492905 120.390312 -6.204568 -2.987505 -7.197873 -0.192051 -0.534955 1.599560 -4.039221 -2.924058 13.834339 66.413529 -67.181808 -105.760655 -0.408458 14.052090 10.745198 -3.080923 -57.688684 -1.678673 -136.387138 79.106146 -127.607513 -8.921368 -17.278402 -6.785515 -0.070926 1.224540 -0.039467 -6.473519 -58.859216 15.311876 -118.338405 81.631982 -121.627816 7.495109 -7.580239 3.930186 0.075974 -0.002390 -0.113275
-32.511328 47.099774 20.016420 174.774762 -29.397558 -4.213512 -0.755032 18.762748 2.350277 -0.109947 2.220163 0.311035 -0.132422 3.662510 0.529966 -0.584676 16.368466 2.228456 -12.106698 18.656598 3.339619 -23.191149 0.366998 9.794090 -0.754971 2.615956 -2.221652 -10.155757 -12.417322 -12.627346 -81.958531 -50.007472 119.320534 -6.540121 -3.351302 -8.130764 -0.194854 -0.465107 1.590826 -3.966399 -2.943186 13.758570 66.363357 -67.175390 -105.615547 -0.369134 14.056479 10.843580 -2.945504 -57.746344 -1.681381 -136.615578 79.091304 -127.854579 -8.950059 -17.467110 -6.768544 -0.062724 1.069975 -0.027924 -6.529161 -58.861763 15.311327 -118.419583 81.663890 -121.738328 7.536954 -7.604765 3.916424 0.064365 -0.000401 -0.125050
-32.482293 47.104737 20.004915 174.687053 -29.395256 -4.193944 -0.751982 18.760305 2.320639 -0.072326 2.218639 0.322732 -0.196882 3.666115 0.499051 -0.578010 16.375049 2.203252 -12.259794 18.782261 3.227410 -23.418507 0.600669 9.609389 -0.753738 2.603628 -2.253788 -10.063958 -12.406164 -12.690993 -81.011383 -49.520134 118.265607 -6.854800 -3.718285 -9.040311 -0.142895 -0.436842 1.601528 -3.961864 -2.935029 13.648787 66.300677 -67.163986 -105.454101 -0.326631 14.061116 10.958352 -2.861162 -57.773175 -1.560712 -136.849889 79.088990 -128.107348 -8.981619 -17.632078 -6.761048 -0.059355 0.927699 -0.009540 -6.569938 -58.848066 15.384988 -118.578758 81.652247 -121.844127 7.541235 -7.639997 3.850881 0.096361 0.003794 -0.116089
-32.449558 47.108672 19.990911 174.544574 -29.416856 -4.163987 -0.693524 18.781395 2.309732 -0.094620 2.221647 0.310337 -0.201049 3.669868 0.490772 -0.573372 16.382620 2.178902 -12.416511 18.914322 3.114466 -23.651654 0.846472 9.422933 -0.695939 2.589119 -2.257316 -10.005292 -12.392683 -12.798133 -80.066159 -49.009398 117.218941 -7.153296 -4.070101 -9.898793 -0.162928 -0.361187 1.571253 -3.888434 -2.979176 13.574896 66.223023 -67.143981 -105.282896 -0.281594 14.064149 11.081561 -2.740490 -57.780666 -1.417843 -137.059646 79.090955 -128.335662 -8.987898 -17.757293 -6.761810 -0.066149 0.785168 0.008942 -6.677197 -58.792255 15.517741 -118.830588 81.648117 -122.034920 7.572257 -7.703912 3.715286 0.142356 0.022379 -0.098089
-32.423262 47.108884 19.977936 174.474347 -29.421314 -4.129418 -0.714014 18.792880 2.257764 -0.115677 2.225987 0.299057 -0.184648 3.672316 0.491162 -0.590795 16.392536 2.147106 -12.576963 19.054999 3.002639 -23.890993 1.108774 9.237717 -0.717229 2.575123 -2.319173 -9.866370 -12.368432 -12.865582 -79.115972 -48.457227 116.181522 -7.442627 -4.392282 -10.706308 -0.176247 -0.286810 1.539772 -3.825040 -3.030522 13.495862 66.131649 -67.115960 -105.105264 -0.234272 14.067942 11.206288 -2.606287 -57.804076 -1.360324 -137.227660 79.086872 -128.522849 -8.994882 -17.849666 -6.766189 -0.060102 0.643119 0.035395 -6.761805 -58.757678 15.568727 -119.009853 81.652373 -122.185518 7.620062 -7.767525 3.638256 0.146568 0.048160 -0.096464
-32.395893 47.107149 19.965943 174.376405 -29.422093 -4.088460 -0.708135 18.804067 2.216419 -0.117083 2.228403 0.295299 -0.187081 3.676192 0.484854 -0.604490 16.402053 2.116251 -12.741858 19.204678 2.893052 -24.137994 1.388584 9.055677 -0.744341 2.561862 -2.378969 -9.715088 -12.340072 -12.952941 -78.157192 -47.851722 115.156955 -7.725205 -4.671422 -11.482515 -0.165640 -0.232311 1.517965 -3.792016 -3.069728 13.400761 66.034233 -67.085905 -104.933407 -0.182094 14.073945 11.335033 -2.441567 -57.832806 -1.301938 -137.325690 79.075834 -128.636379 -8.985735 -17.920063 -6.766566 -0.069778 0.517059 0.054177 -6.770520 -58.740842 15.609262 -119.133342 81.636903 -122.269047 7.654429 -7.814501 3.586224 0.157767 0.063911 -0.113324
-32.371399 47.104413 19.953455 174.283696 -29.423742 -4.035698 -0.709017 18.821725 2.163941 -0.118276 2.230375 0.291387 -0.189075 3.679376 0.478388 -0.616654 16.410307 2.084894 -12.909468 19.361742 2.786235 -24.389945 1.682854 8.877552 -0.747710 2.548667 -2.412999 -9.583115 -12.310133 -13.080356 -77.191283 -47.206128 114.151760 -7.999242 -4.900220 -12.241227 -0.156194 -0.178706 1.495789 -3.760980 -3.110607 13.304046 65.946241 -67.061102 -104.782313 -0.128567 14.081638 11.460151 -2.244701 -57.859938 -1.281963 -137.387633 79.059706 -128.711698 -8.980700 -17.978302 -6.755842 -0.086261 0.409479 0.064565 -6.792591 -58.715684 15.639482 -119.233727 81.630575 -122.349221 7.707992 -7.867237 3.537749 0.156610 0.085364 -0.134963
